#!OML:ASF I:\Actors\actors\Patient Classification 2\Patient 1\Session 1\actor1.ASF
:FULLY-SPECIFIED
:DEGREES
203
root -0.704579 18.6999 5.73553 2.38764 -1.79609 -1.47492
lowerback -1.6366 1.36945 -1.23085
upperback -0.774514 1.84688 -1.33581
thorax 0.129141 0.923964 -0.646008
lowerneck -12.3337 -2.73936 -2.34946
upperneck 36.5664 -4.271 2.21948
head 14.8351 -1.86118 0.653983
rclavicle 2.34162e-014 -1.59028e-014
rhumerus -22.1934 43.1228 -84.7499
rradius 94.7482
rwrist -16.5329
rhand -10.1812 -52.7196
rfingers 7.12502
rthumb 15.8091 -82.0941
lclavicle 2.34162e-014 -1.59028e-014
lhumerus -32.1739 -32.2856 101.128
lradius 93.691
lwrist 17.0306
lhand 0.193499 -22.3162
lfingers 7.12502
lthumb 25.7757 5.9578
rfemur 0 0 0
rtibia 0
rfoot 0 0
rtoes 0
lfemur -4.14224 -8.40018 -13.07
ltibia 20.8528
lfoot -24.8916 17.0768
ltoes -54.4153
204
root -0.704884 18.6998 5.73375 2.36125 -2.04981 -1.34068
lowerback -1.50337 1.40974 -1.328
upperback -0.801678 1.89854 -1.42938
thorax 0.0268441 0.950234 -0.690703
lowerneck -12.3325 -2.70792 -2.35509
upperneck 36.6778 -4.27348 2.34132
head 14.8924 -1.84651 0.70548
rclavicle 4.11702e-014 -3.73715e-014
rhumerus -21.6553 43.1517 -84.7166
rradius 94.6961
rwrist -22.3561
rhand -10.0353 -55.1353
rfingers 7.12502
rthumb 15.9496 -84.4986
lclavicle 4.11702e-014 -3.73715e-014
lhumerus -32.3594 -32.2189 101.136
lradius 93.7798
lwrist 17.513
lhand 0.0169191 -22.483
lfingers 7.12502
lthumb 25.6066 5.81538
rfemur 0 0 0
rtibia 0
rfoot 0 0
rtoes 0
lfemur -4.05247 -8.45321 -13.2585
ltibia 20.8471
lfoot -25.0774 17.2644
ltoes -54.2857
205
root -0.70601 18.7002 5.73706 2.41177 -2.20221 -1.48242
lowerback -1.48192 1.43639 -1.20212
upperback -0.848599 1.93108 -1.41298
thorax -0.0294999 0.966417 -0.7452
lowerneck -12.3073 -2.69581 -2.36372
upperneck 36.7622 -4.28246 2.40764
head 14.9298 -1.84279 0.733775
rclavicle 2.19284e-015 -1.82882e-014
rhumerus -20.9849 42.9107 -84.6248
rradius 94.3525
rwrist -27.5048
rhand -9.55736 -57.1767
rfingers 7.12502
rthumb 16.4099 -86.5026
lclavicle 2.19284e-015 -1.82882e-014
lhumerus -32.6125 -32.1124 101.293
lradius 93.9131
lwrist 18.1003
lhand -0.287265 -22.6524
lfingers 7.12502
lthumb 25.3152 5.68763
rfemur 0 0 0
rtibia 0
rfoot 0 0
rtoes 0
lfemur -4.07056 -8.35296 -13.0984
ltibia 20.8752
lfoot -25.1475 17.3023
ltoes -54.2289
206
root -0.706289 18.7009 5.74543 2.53193 -2.22589 -1.7924
lowerback -1.62029 1.43662 -0.945443
upperback -0.88599 1.93007 -1.30956
thorax 0.0146569 0.965276 -0.779629
lowerneck -12.2208 -2.70361 -2.35727
upperneck 36.7465 -4.28614 2.37727
head 14.9011 -1.84899 0.720481
rclavicle 1.57444e-014 -8.74653e-015
rhumerus -20.3166 42.4224 -84.4491
rradius 93.8422
rwrist -32.4348
rhand -9.23553 -58.7435
rfingers 7.12502
rthumb 16.7197 -88.0435
lclavicle 1.57444e-014 -8.74653e-015
lhumerus -32.9473 -31.9951 101.58
lradius 94.1346
lwrist 18.9175
lhand -0.766054 -22.8235
lfingers 7.12502
lthumb 24.8564 5.58065
rfemur 0 0 0
rtibia 0
rfoot 0 0
rtoes 0
lfemur -4.18976 -8.14521 -12.7176
ltibia 20.9313
lfoot -25.0978 17.1558
ltoes -54.2166
207
root -0.704995 18.7009 5.75264 2.57932 -2.29255 -1.92518
lowerback -1.69585 1.45877 -0.840572
upperback -0.894501 1.95923 -1.25886
thorax 0.0502051 0.979586 -0.78391
lowerneck -12.1605 -2.73453 -2.45778
upperneck 36.7331 -4.32962 2.44326
head 14.8873 -1.87353 0.759506
rclavicle -2.47518e-014 3.18055e-015
rhumerus -19.8234 41.7534 -84.2839
rradius 93.3302
rwrist -36.7661
rhand -8.9601 -60.0224
rfingers 7.12502
rthumb 16.9848 -89.2998
lclavicle -2.47518e-014 3.18055e-015
lhumerus -33.2659 -31.867 101.864
lradius 94.3805
lwrist 19.6892
lhand -1.13322 -23.0218
lfingers 7.12502
lthumb 24.5045 5.43041
rfemur 0 0 0
rtibia 0
rfoot 0 0
rtoes 0
lfemur -4.23749 -8.03814 -12.5679
ltibia 21.0094
lfoot -25.1646 17.0556
ltoes -54.1002
208
root -0.703682 18.6995 5.75917 2.5448 -2.39448 -1.96396
lowerback -1.69437 1.49722 -0.811111
upperback -0.874529 2.01033 -1.25449
thorax 0.0710662 1.00503 -0.794723
lowerneck -12.1622 -2.7764 -2.57609
upperneck 36.7554 -4.4014 2.55312
head 14.9082 -1.90571 0.814653
rclavicle -1.45734e-014 1.43125e-014
rhumerus -19.4934 41.052 -84.1604
rradius 92.7392
rwrist -39.7245
rhand -8.43292 -60.8578
rfingers 7.12502
rthumb 17.4922 90.0908
lclavicle -1.45734e-014 1.43125e-014
lhumerus -33.5156 -31.7113 102.094
lradius 94.6107
lwrist 20.3321
lhand -1.36014 -23.1105
lfingers 7.12502
lthumb 24.287 5.37104
rfemur 0 0 0
rtibia 0
rfoot 0 0
rtoes 0
lfemur -4.17416 -8.03153 -12.5535
ltibia 21.0636
lfoot -25.3099 17.0526
ltoes -53.9675
